# xmcd
# Copyright (C) 1995-1998 Ti Kan
#
# Track frame offsets:
#       150
#       10435
#       18367
#       33395
#       52349
#       73429
#
# Disc length: 1109 seconds
#
# Revision: 0
# Processed by: cddbd v1.5.2PL0 Copyright (c) Steve Scherf et al.
# Submitted via: CD-Transfer v1.0
#
DISCID=55045306
DTITLE=Rigolus - Envie De Toi
DYEAR=06
DGENRE=
TTITLE0=Bouse A Bush
TTITLE1=Machiavelika Portugal
TTITLE2=Dave
TTITLE3=Envie De Toi
TTITLE4=Ich Bin Müde
TTITLE5=Anis Canyoning
EXTD=
EXTT0=
EXTT1=
EXTT2=
EXTT3=
EXTT4=
EXTT5=
PLAYORDER=
